<svg viewBox="0 0 119.799 36.0234" xmlns="http://www.w3.org/2000/svg" xmlns:xlink="http://www.w3.org/1999/xlink" width="119.798828" height="36.023438" fill="none" customFrame="#000000">
	<defs>
		<g id="pixso_custom_effect_0">
			<effect x="0.000000" y="4.000000" visibility="visible" fill="rgb(0,0,0)" fill-opacity="0.25" effectType="dropShadow" stdDeviation="4" radius="0" />
		</g>
		<filter id="filter_0" width="119.798828" height="36.023438" x="0.000000" y="0.000000" filterUnits="userSpaceOnUse" customEffect="url(#pixso_custom_effect_0)" color-interpolation-filters="sRGB">
			<feFlood flood-opacity="0" result="BackgroundImageFix" />
			<feOffset dx="0.000000" dy="4.000000" in="SourceAlpha" />
			<feGaussianBlur stdDeviation="1.33333337" />
			<feColorMatrix type="matrix" values="0 0 0 0 0 0 0 0 0 0 0 0 0 0 0 0 0 0 0.25 0 " />
			<feBlend result="effect_dropShadow_1" in2="BackgroundImageFix" mode="normal" />
			<feBlend result="shape" in="SourceGraphic" in2="effect_dropShadow_1" mode="normal" />
		</filter>
	</defs>
	<g id="logo">
		<g filter="url(#filter_0)">
			<path id="Zenmart." d="M8.65234 16.6426L15.9004 16.6426L15.9004 20L4 20L4 16.8828L11.2012 6.51172L4 6.51172L4 3.1543L15.9004 3.1543L15.9004 6.27148L8.65234 16.6426ZM31.2122 13.0859C31.2122 13.4727 31.1888 13.873 31.1419 14.2871L21.8548 14.2871C21.9173 15.1191 22.1849 15.7559 22.6575 16.1973C23.1302 16.6348 23.7103 16.8535 24.3978 16.8535C25.4212 16.8535 26.1341 16.4219 26.5364 15.5586L30.9017 15.5586C30.679 16.4414 30.2747 17.2344 29.6888 17.9375C29.1067 18.6406 28.3743 19.1934 27.4915 19.5957C26.6126 19.9941 25.6302 20.1934 24.5442 20.1934C23.2317 20.1934 22.0638 19.9141 21.0403 19.3555C20.0169 18.793 19.2161 17.9922 18.638 16.9531C18.0638 15.9141 17.7767 14.6973 17.7767 13.3027C17.7767 11.9121 18.0599 10.6973 18.6263 9.6582C19.1966 8.61523 19.9935 7.81445 21.0169 7.25586C22.0403 6.69727 23.2161 6.41797 24.5442 6.41797C25.8411 6.41797 26.9935 6.68945 28.0013 7.23242C29.0091 7.77539 29.7962 8.55078 30.3626 9.55859C30.929 10.5664 31.2122 11.7422 31.2122 13.0859ZM27.0169 12.0078C27.0169 11.3047 26.7767 10.7461 26.2962 10.332C25.8157 9.91406 25.2161 9.70508 24.4974 9.70508C23.806 9.70508 23.2239 9.90625 22.7513 10.3086C22.2825 10.707 21.9915 11.2734 21.8782 12.0078L27.0169 12.0078ZM41.5372 6.46484C43.1036 6.46484 44.3536 6.97266 45.2872 7.98828C46.2247 9.00391 46.6935 10.4004 46.6935 12.1777L46.6935 20L42.6153 20L42.6153 12.7285C42.6153 11.834 42.3829 11.1387 41.9181 10.6426C41.4532 10.1465 40.8302 9.89844 40.0489 9.89844C39.2638 9.89844 38.6388 10.1465 38.1739 10.6426C37.7091 11.1387 37.4767 11.834 37.4767 12.7285L37.4767 20L33.3751 20L33.3751 6.60547L37.4767 6.60547L37.4767 8.38672C37.8946 7.79297 38.4552 7.32422 39.1583 6.98047C39.8614 6.63672 40.6544 6.46484 41.5372 6.46484ZM66.637 6.46484C68.3011 6.46484 69.6253 6.96875 70.6097 7.97656C71.5941 8.98438 72.0863 10.3848 72.0863 12.1777L72.0863 20L68.0081 20L68.0081 12.7285C68.0081 11.8652 67.7796 11.1973 67.3226 10.7246C66.8656 10.252 66.2367 10.0156 65.4359 10.0156C64.639 10.0156 64.012 10.252 63.555 10.7246C63.098 11.1973 62.8695 11.8652 62.8695 12.7285L62.8695 20L58.7913 20L58.7913 12.7285C58.7913 11.8652 58.5628 11.1973 58.1058 10.7246C57.6488 10.252 57.0218 10.0156 56.2249 10.0156C55.4242 10.0156 54.7952 10.252 54.3382 10.7246C53.8812 11.1973 53.6527 11.8652 53.6527 12.7285L53.6527 20L49.5511 20L49.5511 6.60547L53.6527 6.60547L53.6527 8.28711C54.0706 7.72852 54.6156 7.28516 55.2874 6.95703C55.9593 6.62891 56.7191 6.46484 57.5667 6.46484C58.5745 6.46484 59.4749 6.68164 60.2679 7.11523C61.0609 7.54492 61.68 8.16016 62.1253 8.96094C62.5902 8.22266 63.223 7.62305 64.0238 7.16211C64.8245 6.69727 65.6956 6.46484 66.637 6.46484ZM74.1527 13.2793C74.1527 11.9043 74.4124 10.6973 74.932 9.6582C75.4515 8.61523 76.1585 7.81445 77.053 7.25586C77.9515 6.69727 78.9515 6.41797 80.053 6.41797C80.9984 6.41797 81.8265 6.60938 82.5374 6.99219C83.2523 7.375 83.8011 7.87891 84.1839 8.50391L84.1839 6.60547L88.2855 6.60547L88.2855 20L84.1839 20L84.1839 18.1016C83.7816 18.7266 83.2249 19.2324 82.514 19.6191C81.803 20.002 80.9749 20.1934 80.0296 20.1934C78.9437 20.1934 77.9515 19.9102 77.053 19.3438C76.1585 18.7734 75.4515 17.9648 74.932 16.918C74.4124 15.8672 74.1527 14.6543 74.1527 13.2793ZM84.1839 13.3027C84.1839 12.2793 83.8988 11.4727 83.3284 10.8828C82.762 10.2891 82.0706 9.99219 81.2542 9.99219C80.4378 9.99219 79.7445 10.2852 79.1741 10.8711C78.6077 11.4531 78.3245 12.2559 78.3245 13.2793C78.3245 14.3027 78.6077 15.1152 79.1741 15.7168C79.7445 16.3145 80.4378 16.6133 81.2542 16.6133C82.0706 16.6133 82.762 16.3184 83.3284 15.7285C83.8988 15.1348 84.1839 14.3262 84.1839 13.3027ZM95.3647 8.83789C95.8451 8.10352 96.4447 7.52539 97.1635 7.10352C97.8862 6.67773 98.6869 6.46484 99.5658 6.46484L99.5658 10.8066L98.4408 10.8066C97.4174 10.8066 96.6479 11.0273 96.1322 11.4688C95.6205 11.9102 95.3647 12.6816 95.3647 13.7832L95.3647 20L91.2631 20L91.2631 6.60547L95.3647 6.60547L95.3647 8.83789ZM109 16.5195L109 20L106.908 20C105.424 20 104.266 19.6367 103.434 18.9102C102.602 18.1797 102.186 16.9902 102.186 15.3418L102.186 10.0156L100.551 10.0156L100.551 6.60547L102.186 6.60547L102.186 3.3418L106.287 3.3418L106.287 6.60547L108.977 6.60547L108.977 10.0156L106.287 10.0156L106.287 15.3945C106.287 15.793 106.383 16.0801 106.574 16.2559C106.766 16.4316 107.086 16.5195 107.535 16.5195L109 16.5195Z" fill="rgb(255,255,255)" fill-rule="nonzero" />
			<path id="Zenmart." d="M113.201 20.1934C112.478 20.1934 111.888 19.9824 111.431 19.5605C110.978 19.1348 110.752 18.6094 110.752 17.9844C110.752 17.3438 110.978 16.8086 111.431 16.3789C111.888 15.9453 112.478 15.7285 113.201 15.7285C113.904 15.7285 114.482 15.9453 114.935 16.3789C115.392 16.8086 115.621 17.3438 115.621 17.9844C115.621 18.6094 115.392 19.1348 114.935 19.5605C114.482 19.9824 113.904 20.1934 113.201 20.1934Z" fill="rgb(255,255,255)" fill-rule="nonzero" />
			<path id="Zenmart." d="M113.201 20.1934C112.478 20.1934 111.888 19.9824 111.431 19.5605C110.978 19.1348 110.752 18.6094 110.752 17.9844C110.752 17.3438 110.978 16.8086 111.431 16.3789C111.888 15.9453 112.478 15.7285 113.201 15.7285C113.904 15.7285 114.482 15.9453 114.935 16.3789C115.392 16.8086 115.621 17.3438 115.621 17.9844C115.621 18.6094 115.392 19.1348 114.935 19.5605C114.482 19.9824 113.904 20.1934 113.201 20.1934Z" fill="rgb(245,195,75)" fill-rule="nonzero" />
		</g>
	</g>
</svg>
